<?xml version="1.0" encoding="UTF-8"?>
<svg id="Layer_2" data-name="Layer 2" xmlns="http://www.w3.org/2000/svg" viewBox="0 0 674.13 674.13">
  <defs>
    <style>
      .cls-1 {
        fill: #123d1d;
      }
    </style>
  </defs>
  <g id="Artboard_4" data-name="Artboard 4">
    <path id="Thin" class="cls-1" d="M374.52,603.68c0-4.06,2.93-7.5,6.93-8.18,10.39-1.77,20.58-4.16,30.52-7.12,12.93-3.84,25.45-8.67,37.45-14.38,7.8-3.69,15.4-7.78,22.75-12.21,5.01-3.02,9.91-6.2,14.7-9.54,12-8.36,23.25-17.71,33.67-27.91,1.28-1.25,2.54-2.51,3.79-3.79,10.21-10.41,19.55-21.67,27.91-33.67,3.34-4.79,6.52-9.69,9.54-14.7,4.43-7.36,8.52-14.95,12.21-22.75,5.71-12.01,10.54-24.52,14.38-37.45,2.96-9.94,5.35-20.13,7.12-30.52.68-4,4.13-6.93,8.18-6.93h62.15c4.59,0,8.31-3.72,8.31-8.31v-58.29c0-4.59-3.72-8.31-8.31-8.31h-62.15c-4.06,0-7.5-2.93-8.18-6.93-1.77-10.39-4.16-20.58-7.12-30.52-3.84-12.93-8.67-25.45-14.38-37.45-3.69-7.8-7.78-15.4-12.21-22.75-3.02-5.01-6.2-9.91-9.54-14.7-8.36-12-17.71-23.25-27.91-33.67-1.25-1.28-2.51-2.54-3.79-3.79-10.41-10.21-21.67-19.55-33.67-27.91-4.79-3.34-9.69-6.52-14.7-9.54-7.36-4.43-14.95-8.52-22.75-12.21-12.01-5.71-24.52-10.54-37.45-14.38-9.94-2.96-20.13-5.35-30.52-7.12-4-.68-6.93-4.13-6.93-8.18V8.31C374.52,3.72,370.8,0,366.21,0h-58.29c-4.59,0-8.31,3.72-8.31,8.31v62.15c0,4.06-2.93,7.5-6.93,8.18-10.39,1.77-20.58,4.16-30.52,7.12-12.93,3.84-25.45,8.67-37.45,14.38-7.8,3.69-15.4,7.78-22.75,12.21-5.01,3.02-9.91,6.2-14.7,9.54-11.99,8.36-23.25,17.71-33.67,27.91-1.28,1.25-2.54,2.51-3.79,3.79-10.21,10.41-19.55,21.67-27.91,33.67-3.34,4.79-6.52,9.69-9.54,14.7-4.43,7.36-8.52,14.95-12.21,22.75-5.71,12.01-10.54,24.52-14.38,37.45-2.96,9.94-5.35,20.13-7.12,30.52-.68,4-4.13,6.93-8.18,6.93H8.31C3.72,299.61,0,303.33,0,307.92v58.29c0,4.59,3.72,8.31,8.31,8.31h62.15c4.06,0,7.5,2.93,8.18,6.93,1.77,10.39,4.16,20.58,7.12,30.52,3.84,12.93,8.67,25.45,14.38,37.45,3.69,7.8,7.78,15.4,12.21,22.75,3.02,5.01,6.2,9.91,9.54,14.7,8.36,12,17.71,23.25,27.91,33.67,1.25,1.28,2.51,2.54,3.79,3.79,10.41,10.21,21.67,19.55,33.67,27.91,4.79,3.34,9.69,6.52,14.7,9.54,7.36,4.43,14.95,8.52,22.75,12.21,12.01,5.71,24.52,10.54,37.45,14.38,9.94,2.96,20.13,5.35,30.52,7.12,4,.68,6.93,4.13,6.93,8.18v62.15c0,4.59,3.72,8.31,8.31,8.31h58.29c4.59,0,8.31-3.72,8.31-8.31v-62.15ZM299.61,510.11c0,5.46-5.18,9.42-10.46,8.03-9.3-2.45-18.31-5.61-26.99-9.39-13.38-5.85-25.94-13.2-37.45-21.86h0-.01c-14.18-10.66-26.79-23.27-37.44-37.45h0s-.01-.01-.01-.01c-8.66-11.52-16.01-24.07-21.86-37.45-3.79-8.67-6.94-17.69-9.39-26.99-1.39-5.28,2.56-10.46,8.03-10.46h52.38c4.59,0,8.31-3.72,8.31-8.31v-58.29c0-4.59-3.72-8.31-8.31-8.31h-52.38c-5.46,0-9.42-5.18-8.03-10.46,2.45-9.3,5.61-18.31,9.39-26.99,5.85-13.38,13.2-25.94,21.86-37.45h.01c10.65-14.19,23.26-26.8,37.44-37.45h.01s0-.01,0-.01c11.52-8.66,24.07-16.01,37.45-21.86,8.67-3.79,17.69-6.94,26.99-9.39,5.28-1.39,10.46,2.56,10.46,8.03v52.38c0,4.59,3.72,8.31,8.31,8.31h58.29c4.59,0,8.31-3.72,8.31-8.31v-52.38c0-5.46,5.18-9.42,10.46-8.03,9.3,2.45,18.31,5.61,26.99,9.39,13.38,5.85,25.94,13.2,37.45,21.86h0,.01c14.18,10.66,26.79,23.27,37.44,37.45h0s.01.01.01.01c8.66,11.52,16.01,24.07,21.86,37.45,3.79,8.67,6.94,17.69,9.39,26.99,1.39,5.28-2.56,10.46-8.03,10.46h-52.38c-4.59,0-8.31,3.72-8.31,8.31v58.29c0,4.59,3.72,8.31,8.31,8.31h52.38c5.46,0,9.42,5.18,8.03,10.46-2.45,9.3-5.61,18.31-9.39,26.99-5.85,13.38-13.2,25.94-21.86,37.45h-.01c-10.65,14.19-23.26,26.8-37.44,37.45h-.01s0,.01,0,.01c-11.52,8.66-24.07,16.01-37.45,21.86-8.67,3.79-17.69,6.94-26.99,9.39-5.28,1.39-10.46-2.56-10.46-8.03v-52.38c0-4.59-3.72-8.31-8.31-8.31h-58.29c-4.59,0-8.31,3.72-8.31,8.31v52.38Z"/>
  </g>
</svg>